<svg data-v-fde0c5aa="" xmlns="http://www.w3.org/2000/svg" viewBox="0 0 300 300" class="icon"><defs data-v-fde0c5aa=""></defs><rect data-v-fde0c5aa="" fill="#00000000" x="0" y="0" width="300px" height="300px" class="logo-background-square"></rect><defs data-v-fde0c5aa=""><linearGradient data-v-fde0c5aa="" gradientTransform="rotate(25)" id="1aee2e18-6cf4-409f-af9c-8822bebb09a5" x1="0%" y1="0%" x2="100%" y2="0%"><stop data-v-fde0c5aa="" offset="0%" stop-color="#EB4C00" stop-opacity="1"></stop><stop data-v-fde0c5aa="" offset="100%" stop-color="#F2A900" stop-opacity="1"></stop></linearGradient></defs><g data-v-fde0c5aa="" id="0311d27b-890c-4df5-a739-0570210c57dd" fill="url(#1aee2e18-6cf4-409f-af9c-8822bebb09a5)" stroke="none" transform="matrix(2.20002818107605,0,0,2.20002818107605,67.34195747462125,40)"><path d="M56.572 55.698c0-1.52 6.527-21.734-6.182-27.847C35.748 20.808 31.701 15.19 31.822 6.188c-.009.365-8.855 14.62-3.094 21.663 8.942 10.902 5.166 19.343 0 18.566-8.68-1.301-7.632-12.617-6.191-15.472-4.536-.478-9.782 2.343-12.378 6.188-7.808 11.598 9.114 22.696 3.097 30.944C8.677 74.362.852 61.987.878 61.889c-9.29 48.494 58.182 49.726 61.889 9.284 1.104-12.128 12.024-18.725 12.375-18.569-11.627-5.361-18.57 3.482-18.57 3.094zM34.918 89.743c-16.223.598-14.557-11.559-12.381-15.473 2.763-4.984 9.76-5.969 6.191-12.381.046.098 7.589 1.231 12.373 6.188 7.338 7.575 6.503 21.187-6.183 21.666z"></path><path d="M44.197 15.472C42.303 13.44 41.1 11 41.1 9.282c0-3.221 2.631-6.317 6.193-9.282.357 2.579-1.543 6.447 0 9.282 1.197 2.098 3.097 4.472 3.097 6.19 0 2.302-.857 4.4-3.097 6.188-.339-.861-.932-3.684-3.096-6.188z"></path></g></svg>